<svg width="20" height="20" viewBox="0 0 20 20" fill="none" xmlns="http://www.w3.org/2000/svg">
<path d="M19.2688 5.93495L17.2569 3.92243L18.9238 2.25574L17.7453 1.0774L16.0785 2.74408L14.0666 0.732391C13.8345 0.500197 13.5588 0.316009 13.2554 0.190344C12.9521 0.0646792 12.6269 0 12.2986 0C11.9702 0 11.645 0.0646792 11.3417 0.190344C11.0383 0.316009 10.7626 0.500197 10.5305 0.732391L8.17358 3.08909L11.9531 6.86913L6.86929 11.9525L3.08893 8.17331L0.732036 10.53C0.263314 10.9988 0 11.6346 0 12.2975C0 12.9604 0.263314 13.5962 0.732036 14.065L2.74389 16.0776L1.07707 17.7443L2.25551 18.9226L3.92234 17.2559L5.9342 19.2676C6.16637 19.4998 6.44201 19.684 6.74538 19.8097C7.04875 19.9353 7.37391 20 7.70228 20C8.03065 20 8.35581 19.9353 8.65918 19.8097C8.96255 19.684 9.23819 19.4998 9.47037 19.2676L11.8273 16.9109L8.04773 13.1309L13.1315 8.04748L16.9111 11.8267L19.268 9.46999C19.7367 9.00117 20 8.36539 20 7.70247C20 7.03956 19.7375 6.40378 19.2688 5.93495ZM8.29192 18.0893C8.21452 18.1667 8.1226 18.2282 8.02143 18.2701C7.92025 18.3121 7.8118 18.3337 7.70228 18.3337C7.59276 18.3337 7.48431 18.3121 7.38313 18.2701C7.28196 18.2282 7.19004 18.1667 7.11264 18.0893L1.91048 12.8867C1.75424 12.7304 1.66647 12.5185 1.66647 12.2975C1.66647 12.0766 1.75424 11.8646 1.91048 11.7084L3.08893 10.53L9.47037 16.9109L8.29192 18.0893ZM18.0904 8.29081L16.9119 9.46999L10.5305 3.08909L11.7089 1.91074C11.7863 1.83326 11.8782 1.77179 11.9794 1.72985C12.0806 1.68792 12.189 1.66633 12.2986 1.66633C12.4081 1.66633 12.5165 1.68792 12.6177 1.72985C12.7189 1.77179 12.8108 1.83326 12.8882 1.91074L18.0904 7.1133C18.2463 7.26954 18.3339 7.48129 18.3339 7.70206C18.3339 7.92283 18.2463 8.13457 18.0904 8.29081Z" fill="#5C6C68"/>
</svg>
