<svg width="20" height="20" viewBox="0 0 20 20" fill="none" xmlns="http://www.w3.org/2000/svg">
<path d="M20 6.78815C20 6.42567 19.8683 6.07804 19.6339 5.82172C19.3995 5.56541 19.0815 5.42141 18.75 5.42141C18.75 5.42141 18.2633 5.42141 18.2292 5.4287C17.606 4.16632 16.8921 2.96009 16.0942 1.82141C15.6778 1.22943 15.1008 0.796632 14.4458 0.584966C12.9783 -0.194989 7.02167 -0.194989 5.55417 0.584966C4.89917 0.796632 4.3222 1.22943 3.90583 1.82141C3.10787 2.96009 2.39396 4.16632 1.77083 5.4287C1.73667 5.42141 1.25 5.42141 1.25 5.42141C0.918479 5.42141 0.600537 5.56541 0.366116 5.82172C0.131696 6.07804 0 6.42567 0 6.78815L0 12.7107C0.000161115 13.3503 0.154258 13.9786 0.446811 14.5325C0.739365 15.0863 1.16007 15.5463 1.66667 15.8661V17.2665C1.66667 17.9915 1.93006 18.6868 2.3989 19.1994C2.86774 19.712 3.50363 20 4.16667 20C4.82971 20 5.46559 19.712 5.93443 19.1994C6.40327 18.6868 6.66667 17.9915 6.66667 17.2665V16.3554H13.3333V17.2665C13.3333 17.9915 13.5967 18.6868 14.0656 19.1994C14.5344 19.712 15.1703 20 15.8333 20C16.4964 20 17.1323 19.712 17.6011 19.1994C18.0699 18.6868 18.3333 17.9915 18.3333 17.2665V15.8661C18.8399 15.5463 19.2606 15.0863 19.5532 14.5325C19.8457 13.9786 19.9998 13.3503 20 12.7107V6.78815ZM5.22833 2.9303C5.43248 2.64243 5.71447 2.43231 6.03417 2.32984C7.3 1.64556 12.7008 1.64556 13.9658 2.32984C14.2855 2.43231 14.5675 2.64243 14.7717 2.9303C16.0372 4.74465 17.0794 6.73278 17.8717 8.84373C12.6515 8.01093 7.34847 8.01093 2.12833 8.84373C2.92058 6.73278 3.96282 4.74465 5.22833 2.9303ZM5 17.2665C5 17.5082 4.9122 17.7399 4.75592 17.9108C4.59964 18.0817 4.38768 18.1777 4.16667 18.1777C3.94565 18.1777 3.73369 18.0817 3.57741 17.9108C3.42113 17.7399 3.33333 17.5082 3.33333 17.2665V16.3554H5V17.2665ZM16.6667 17.2665C16.6667 17.5082 16.5789 17.7399 16.4226 17.9108C16.2663 18.0817 16.0543 18.1777 15.8333 18.1777C15.6123 18.1777 15.4004 18.0817 15.2441 17.9108C15.0878 17.7399 15 17.5082 15 17.2665V16.3554H16.6667V17.2665ZM16.6667 14.533H3.33333C2.89131 14.533 2.46738 14.341 2.15482 13.9993C1.84226 13.6575 1.66667 13.194 1.66667 12.7107V10.7581C4.42563 10.2969 7.2095 10.0361 10 9.97722C12.7905 10.0361 15.5744 10.2969 18.3333 10.7581V12.7107C18.3333 13.194 18.1577 13.6575 17.8452 13.9993C17.5326 14.341 17.1087 14.533 16.6667 14.533ZM5 12.7107C5 12.9524 4.9122 13.1841 4.75592 13.355C4.59964 13.5259 4.38768 13.6219 4.16667 13.6219C3.94565 13.6219 3.73369 13.5259 3.57741 13.355C3.42113 13.1841 3.33333 12.9524 3.33333 12.7107C3.33333 12.4691 3.42113 12.2373 3.57741 12.0664C3.73369 11.8955 3.94565 11.7995 4.16667 11.7995C4.38768 11.7995 4.59964 11.8955 4.75592 12.0664C4.9122 12.2373 5 12.4691 5 12.7107ZM16.6667 12.7107C16.6667 12.9524 16.5789 13.1841 16.4226 13.355C16.2663 13.5259 16.0543 13.6219 15.8333 13.6219C15.6123 13.6219 15.4004 13.5259 15.2441 13.355C15.0878 13.1841 15 12.9524 15 12.7107C15 12.4691 15.0878 12.2373 15.2441 12.0664C15.4004 11.8955 15.6123 11.7995 15.8333 11.7995C16.0543 11.7995 16.2663 11.8955 16.4226 12.0664C16.5789 12.2373 16.6667 12.4691 16.6667 12.7107Z" fill="#5C6C68"/>
</svg>
