<svg width="20" height="20" viewBox="0 0 20 20" fill="none" xmlns="http://www.w3.org/2000/svg">
<path d="M9.99886 0.833333V5.83333C9.9974 6.7935 9.59881 7.7239 8.87027 8.46771C8.14172 9.21152 7.12777 9.72325 5.99931 9.91667V19.1667C5.99931 19.3877 5.89397 19.5996 5.70645 19.7559C5.51894 19.9122 5.26461 20 4.99943 20C4.73424 20 4.47992 19.9122 4.2924 19.7559C4.10489 19.5996 3.99954 19.3877 3.99954 19.1667V9.91667C2.87108 9.72325 1.85713 9.21152 1.12859 8.46771C0.400044 7.7239 0.00145436 6.7935 0 5.83333V0.833333C0 0.61232 0.105345 0.400358 0.29286 0.244078C0.480375 0.0877974 0.734699 0 0.999886 0C1.26507 0 1.5194 0.0877974 1.70691 0.244078C1.89443 0.400358 1.99977 0.61232 1.99977 0.833333V5.83333C2.00233 6.34855 2.19583 6.85052 2.5538 7.27058C2.91176 7.69064 3.4167 8.00826 3.99954 8.18V0.833333C3.99954 0.61232 4.10489 0.400358 4.2924 0.244078C4.47992 0.0877974 4.73424 0 4.99943 0C5.26461 0 5.51894 0.0877974 5.70645 0.244078C5.89397 0.400358 5.99931 0.61232 5.99931 0.833333V8.18C6.58216 8.00826 7.0871 7.69064 7.44506 7.27058C7.80302 6.85052 7.99652 6.34855 7.99909 5.83333V0.833333C7.99909 0.61232 8.10443 0.400358 8.29195 0.244078C8.47946 0.0877974 8.73378 0 8.99897 0C9.26416 0 9.51848 0.0877974 9.706 0.244078C9.89351 0.400358 9.99886 0.61232 9.99886 0.833333ZM19.9977 8.33333C19.953 9.91704 19.4802 11.4719 18.6147 12.8823C17.7491 14.2926 16.5129 15.5221 14.9983 16.4792V19.1667C14.9983 19.3877 14.8929 19.5996 14.7054 19.7559C14.5179 19.9122 14.2636 20 13.9984 20C13.7332 20 13.4789 19.9122 13.2914 19.7559C13.1039 19.5996 12.9985 19.3877 12.9985 19.1667V1.66667C12.9895 1.35355 13.0922 1.04526 13.2935 0.780774C13.4948 0.516293 13.7857 0.307509 14.1294 0.180833C14.5242 0.046971 14.9572 0.0118585 15.3756 0.0797868C15.7939 0.147715 16.1795 0.315742 16.4851 0.563333C18.8042 2.68413 20.0611 5.46441 19.9977 8.33333ZM17.9979 8.33333C18.0263 5.89346 16.956 3.5334 14.9983 1.71917V14.225C16.8722 12.6569 17.9468 10.5461 17.9979 8.33333Z" fill="#5C6C68"/>
</svg>
