<svg width="18" height="18" viewBox="0 0 18 18" fill="none" xmlns="http://www.w3.org/2000/svg">
<path d="M1.49235 0.818182C1.49235 0.601187 1.57132 0.393079 1.71188 0.23964C1.85245 0.0862012 2.0431 1.90074e-07 2.2419 1.90074e-07H5.9267C6.52999 -0.000200531 7.1244 0.158575 7.65944 0.462836C8.19447 0.767096 8.65431 1.20785 8.99987 1.74764L12.8331 7.73427C12.8895 7.82243 12.9295 7.92186 12.9508 8.02689C12.972 8.13192 12.9741 8.24049 12.9569 8.3464C12.9397 8.45231 12.9036 8.55348 12.8506 8.64415C12.7976 8.73482 12.7287 8.8132 12.6479 8.87482C12.5672 8.93644 12.4761 8.98009 12.3799 9.00328C12.2836 9.02647 12.1842 9.02875 12.0872 9.00999C11.9901 8.99122 11.8974 8.95178 11.8144 8.89391C11.7313 8.83604 11.6595 8.76089 11.6031 8.67273L8.99987 4.60636L2.68638 9.66027C2.52596 9.78873 2.32535 9.84237 2.1287 9.80938C1.93204 9.77639 1.75544 9.65948 1.63776 9.48436C1.52007 9.30925 1.47094 9.09027 1.50116 8.87561C1.53138 8.66095 1.63849 8.46819 1.79891 8.33973L8.14088 3.267L7.76985 2.68855C7.56295 2.36412 7.28733 2.09904 6.96643 1.91585C6.64552 1.73266 6.28884 1.63678 5.9267 1.63636H2.2419C2.0431 1.63636 1.85245 1.55016 1.71188 1.39672C1.57132 1.24329 1.49235 1.03518 1.49235 0.818182ZM16.733 15.9464C16.4586 16.2155 16.1027 16.3641 15.7339 16.3636C15.4077 16.3642 15.0885 16.2615 14.8148 16.0679C14.5411 15.8743 14.3248 15.5982 14.192 15.273C14.1403 15.1137 14.0445 14.9757 13.918 14.8782C13.7915 14.7806 13.6405 14.7283 13.4856 14.7283C13.3307 14.7283 13.1796 14.7806 13.0531 14.8782C12.9266 14.9757 12.8309 15.1137 12.7791 15.273C12.6459 15.5979 12.4295 15.8739 12.1558 16.0675C11.8822 16.2611 11.563 16.3641 11.2369 16.3641C10.9108 16.3641 10.5917 16.2611 10.318 16.0675C10.0443 15.8739 9.82787 15.5979 9.6947 15.273C9.64294 15.1137 9.54723 14.9757 9.42072 14.8782C9.29422 14.7806 9.14314 14.7283 8.98825 14.7283C8.83337 14.7283 8.68228 14.7806 8.55578 14.8782C8.42927 14.9757 8.33356 15.1137 8.2818 15.273C8.14863 15.5979 7.93215 15.8739 7.6585 16.0675C7.38484 16.2611 7.0657 16.3641 6.73959 16.3641C6.41348 16.3641 6.09434 16.2611 5.82069 16.0675C5.54703 15.8739 5.33056 15.5979 5.19739 15.273C5.14562 15.1137 5.04991 14.9757 4.9234 14.8782C4.7969 14.7806 4.64582 14.7283 4.49093 14.7283C4.33605 14.7283 4.18497 14.7806 4.05846 14.8782C3.93196 14.9757 3.83624 15.1137 3.78448 15.273C3.65153 15.5982 3.43504 15.8743 3.16125 16.0678C2.88746 16.2614 2.56811 16.3642 2.2419 16.3636C1.87307 16.3632 1.51734 16.2143 1.24274 15.9455C1.0943 15.804 0.900724 15.7319 0.703955 15.745C0.507187 15.7581 0.323064 15.8553 0.191466 16.0155C0.0598685 16.1757 -0.00860833 16.3861 0.000867212 16.601C0.0103428 16.8159 0.0970077 17.0181 0.242091 17.1638C0.791663 17.7018 1.50372 17.9995 2.2419 18C3.08129 17.9921 3.88599 17.6334 4.49056 16.9977C5.09107 17.6402 5.89839 18 6.73922 18C7.58005 18 8.38736 17.6402 8.98787 16.9977C9.58839 17.6402 10.3957 18 11.2365 18C12.0774 18 12.8847 17.6402 13.4852 16.9977C14.0896 17.6337 14.8944 17.9924 15.7339 18C16.4724 18.0007 17.1849 17.7025 17.7337 17.163C17.8104 17.0923 17.8734 17.0056 17.9188 16.9078C17.9643 16.8101 17.9913 16.7034 17.9982 16.594C18.0051 16.4847 17.9919 16.3749 17.9592 16.2713C17.9265 16.1677 17.8751 16.0722 17.808 15.9907C17.7409 15.9092 17.6595 15.8432 17.5686 15.7967C17.4776 15.7502 17.3791 15.7241 17.2787 15.7199C17.1784 15.7158 17.0783 15.7337 16.9844 15.7726C16.8906 15.8115 16.8056 15.8706 16.733 15.9464ZM2.2419 13.9091C3.08129 13.9012 3.88599 13.5425 4.49056 12.9068C5.09107 13.5492 5.89839 13.9091 6.73922 13.9091C7.58005 13.9091 8.38736 13.5492 8.98787 12.9068C9.58839 13.5492 10.3957 13.9091 11.2365 13.9091C12.0774 13.9091 12.8847 13.5492 13.4852 12.9068C14.0896 13.5428 14.8944 13.9015 15.7339 13.9091C16.4724 13.9098 17.1849 13.6116 17.7337 13.0721C17.8104 13.0014 17.8734 12.9147 17.9188 12.8169C17.9643 12.7192 17.9913 12.6125 17.9982 12.5031C18.0051 12.3938 17.9919 12.284 17.9592 12.1804C17.9265 12.0768 17.8751 11.9813 17.808 11.8998C17.7409 11.8183 17.6595 11.7523 17.5686 11.7058C17.4776 11.6593 17.3791 11.6332 17.2787 11.629C17.1784 11.6249 17.0783 11.6428 16.9844 11.6817C16.8906 11.7206 16.8048 11.7797 16.7323 11.8555C16.4581 12.1244 16.1024 12.273 15.7339 12.2727C15.4077 12.2733 15.0885 12.1706 14.8148 11.977C14.5411 11.7834 14.3248 11.5073 14.192 11.1821C14.1403 11.0227 14.0445 10.8848 13.918 10.7873C13.7915 10.6897 13.6405 10.6374 13.4856 10.6374C13.3307 10.6374 13.1796 10.6897 13.0531 10.7873C12.9266 10.8848 12.8309 11.0227 12.7791 11.1821C12.6459 11.507 12.4295 11.7829 12.1558 11.9766C11.8822 12.1702 11.563 12.2732 11.2369 12.2732C10.9108 12.2732 10.5917 12.1702 10.318 11.9766C10.0443 11.7829 9.82787 11.507 9.6947 11.1821C9.64294 11.0227 9.54723 10.8848 9.42072 10.7873C9.29422 10.6897 9.14314 10.6374 8.98825 10.6374C8.83337 10.6374 8.68228 10.6897 8.55578 10.7873C8.42927 10.8848 8.33356 11.0227 8.2818 11.1821C8.14863 11.507 7.93215 11.7829 7.6585 11.9766C7.38484 12.1702 7.0657 12.2732 6.73959 12.2732C6.41348 12.2732 6.09434 12.1702 5.82069 11.9766C5.54703 11.7829 5.33056 11.507 5.19739 11.1821C5.14562 11.0227 5.04991 10.8848 4.9234 10.7873C4.7969 10.6897 4.64582 10.6374 4.49093 10.6374C4.33605 10.6374 4.18497 10.6897 4.05846 10.7873C3.93196 10.8848 3.83624 11.0227 3.78448 11.1821C3.65153 11.5073 3.43504 11.7833 3.16125 11.9769C2.88746 12.1705 2.56811 12.2733 2.2419 12.2727C1.87307 12.2723 1.51734 12.1234 1.24274 11.8546C1.0943 11.713 0.900724 11.641 0.703955 11.6541C0.507187 11.6672 0.323064 11.7644 0.191466 11.9246C0.0598685 12.0848 -0.00860833 12.2951 0.000867212 12.5101C0.0103428 12.725 0.0970077 12.9272 0.242091 13.0729C0.791663 13.6109 1.50372 13.9086 2.2419 13.9091ZM13.86 5.72727C14.2306 5.72727 14.5929 5.60731 14.901 5.38255C15.2092 5.15779 15.4494 4.83834 15.5912 4.46458C15.733 4.09082 15.7702 3.67955 15.6978 3.28277C15.6255 2.88599 15.4471 2.52153 15.185 2.23546C14.9229 1.9494 14.589 1.75459 14.2255 1.67567C13.862 1.59674 13.4853 1.63725 13.1429 1.79206C12.8005 1.94688 12.5078 2.20905 12.3019 2.54542C12.096 2.8818 11.9861 3.27727 11.9861 3.68182C11.9861 4.22431 12.1835 4.74458 12.5349 5.12817C12.8864 5.51177 13.363 5.72727 13.86 5.72727Z" fill="#5C6C68"/>
</svg>
