<svg width="64" height="65" viewBox="0 0 64 65" fill="none" xmlns="http://www.w3.org/2000/svg">
<path fill-rule="evenodd" clip-rule="evenodd" d="M47.5975 58.0049C47.3972 58.0049 47.2014 57.9456 47.0347 57.8345C46.868 57.7234 46.7379 57.5656 46.6607 57.3807C46.5835 57.1959 46.5627 56.9923 46.6009 56.7957C46.6392 56.5991 46.7347 56.4182 46.8755 56.2757L47.1096 56.0389C47.2031 55.9427 47.3146 55.8659 47.4379 55.8131C47.5611 55.7602 47.6936 55.7323 47.8277 55.7309C47.9618 55.7296 48.0949 55.7548 48.2192 55.8051C48.3435 55.8554 48.4566 55.9299 48.552 56.0242C48.6473 56.1185 48.7231 56.2307 48.7748 56.3544C48.8266 56.4781 48.8534 56.6109 48.8535 56.745C48.8537 56.8791 48.8273 57.0119 48.7759 57.1358C48.7245 57.2596 48.649 57.3721 48.5539 57.4666L48.3197 57.7034C48.2254 57.799 48.1129 57.875 47.9889 57.9267C47.8649 57.9785 47.7319 58.0051 47.5975 58.0049ZM43.4391 51.142C43.1741 51.1424 42.9196 51.0388 42.7301 50.8536L42.4466 50.5769C42.2611 50.3873 42.1572 50.1327 42.157 49.8674C42.1568 49.6022 42.2604 49.3474 42.4456 49.1576C42.6308 48.9677 42.883 48.8578 43.1481 48.8514C43.4133 48.845 43.6704 48.9426 43.8646 49.1233L44.1481 49.3999C44.2926 49.5409 44.3918 49.7218 44.4331 49.9194C44.4743 50.117 44.4557 50.3225 44.3796 50.5095C44.3035 50.6965 44.1733 50.8565 44.0058 50.9692C43.8383 51.0819 43.641 51.142 43.4391 51.142ZM35.8092 45.001C35.5589 45.0013 35.3174 44.9088 35.1314 44.7413L34.9334 44.5636C34.7368 44.3827 34.6194 44.1316 34.6066 43.8648C34.5939 43.5979 34.6868 43.3368 34.8652 43.138C35.0437 42.9392 35.2933 42.8187 35.56 42.8026C35.8266 42.7866 36.0889 42.8763 36.2899 43.0523L36.4879 43.2299C36.5871 43.3189 36.6678 43.4266 36.7254 43.5469C36.783 43.6672 36.8164 43.7976 36.8236 43.9307C36.8308 44.0639 36.8117 44.1972 36.7673 44.3229C36.723 44.4487 36.6544 44.5645 36.5653 44.6637C36.4701 44.77 36.3536 44.8551 36.2233 44.9132C36.093 44.9713 35.9519 45.0013 35.8092 45.001ZM49.1162 43.5807C48.9227 43.5808 48.7331 43.5256 48.5699 43.4216C48.4067 43.3176 48.2767 43.1691 48.1951 42.9936L48.0016 42.5782C47.9441 42.4571 47.911 42.3258 47.9044 42.1919C47.8978 42.058 47.9178 41.9241 47.9632 41.798C48.0086 41.6718 48.0786 41.5559 48.169 41.457C48.2595 41.358 48.3686 41.2779 48.4901 41.2213C48.6117 41.1648 48.7432 41.1328 48.8772 41.1273C49.0112 41.1219 49.1449 41.143 49.2706 41.1895C49.3964 41.2359 49.5117 41.3069 49.6099 41.3981C49.7081 41.4894 49.7873 41.5992 49.8428 41.7212L50.0361 42.1366C50.1081 42.2913 50.14 42.4617 50.1288 42.6319C50.1176 42.8022 50.0636 42.9669 49.972 43.1108C49.8803 43.2548 49.7538 43.3733 49.6043 43.4554C49.4547 43.5375 49.2868 43.5806 49.1162 43.5807ZM35.9069 58.0943C35.7134 58.0944 35.5238 58.0392 35.3607 57.9351C35.1975 57.8311 35.0674 57.6826 34.9858 57.5071L34.7923 57.0917C34.7361 56.9708 34.7041 56.84 34.6984 56.7068C34.6927 56.5736 34.7133 56.4405 34.7589 56.3152C34.8046 56.19 34.8746 56.0749 34.9647 55.9767C35.0549 55.8784 35.1635 55.7989 35.2844 55.7426C35.5285 55.6289 35.8078 55.6169 36.0608 55.7092C36.1861 55.7549 36.3012 55.8248 36.3994 55.9149C36.4977 56.0051 36.5772 56.1137 36.6335 56.2346L36.8268 56.65C36.8988 56.8047 36.9307 56.9751 36.9195 57.1454C36.9083 57.3156 36.8543 57.4803 36.7627 57.6243C36.671 57.7682 36.5445 57.8867 36.395 57.9689C36.2454 58.051 36.0775 58.0942 35.9069 58.0943ZM53.1313 28.757C52.8815 28.7567 52.6407 28.6643 52.4548 28.4977C52.2688 28.331 52.1508 28.1016 52.1233 27.8534C52.0957 27.6052 52.1606 27.3556 52.3054 27.1522C52.4503 26.9488 52.665 26.8059 52.9086 26.7508C56.8141 25.8688 59.6489 22.3177 59.6489 18.307C59.6489 13.5334 55.7655 9.64986 50.9923 9.64986C49.6332 9.64986 48.3328 9.95543 47.1276 10.5583C46.8871 10.6759 46.6098 10.6938 46.3562 10.608C46.1026 10.5222 45.8931 10.3397 45.7733 10.1003C45.6536 9.86083 45.6332 9.58376 45.7167 9.32937C45.8002 9.07499 45.9808 8.86387 46.2192 8.74197C47.7089 7.99683 49.3147 7.61914 50.9923 7.61914C53.8471 7.61914 56.531 8.73086 58.5495 10.7496C60.5681 12.7683 61.6798 15.4523 61.6798 18.307C61.6798 20.7464 60.8362 23.1323 59.3047 25.0251C57.7959 26.8899 55.6834 28.2062 53.3559 28.7318C53.2822 28.7486 53.2068 28.757 53.1313 28.757Z" fill="white"/>
<path fill-rule="evenodd" clip-rule="evenodd" d="M50.0501 64.987H33.647C32.1358 64.9888 30.68 64.4183 29.5723 63.3902C29.4745 63.2996 29.3955 63.1906 29.3397 63.0695C29.284 62.9483 29.2527 62.8174 29.2476 62.6842C29.2425 62.5509 29.2637 62.418 29.31 62.2929C29.3562 62.1678 29.4267 62.0531 29.5173 61.9553C29.6079 61.8574 29.7169 61.7784 29.838 61.7226C29.9592 61.6669 30.0901 61.6356 30.2234 61.6305C30.3566 61.6254 30.4896 61.6466 30.6147 61.6929C30.7397 61.7392 30.8544 61.8096 30.9522 61.9003C31.6848 62.5801 32.6476 62.9574 33.647 62.9563H50.049C50.7563 62.9563 51.4507 62.7669 52.06 62.4077C52.6693 62.0485 53.1712 61.5326 53.5136 60.9137C54.3746 59.6231 53.895 56.1461 54.0112 54.3469V35.4549C54.017 32.983 53.4009 30.4778 52.2296 28.2075C52.226 28.2006 52.2225 28.1936 52.2192 28.1866L46.2933 16.0275C45.876 15.1688 45.6587 14.2266 45.6576 13.2718V7.35787H34.0058L35.5952 8.35163C36.6814 9.03065 37.3297 10.2009 37.3297 11.4821V13.3522C37.331 14.2459 37.1405 15.1295 36.7711 15.9433L30.963 28.7932C30.0465 30.8216 29.5817 32.9782 29.5817 35.2033V54.5691C29.5767 54.8351 29.4676 55.0886 29.2777 55.275C29.0878 55.4614 28.8323 55.5658 28.5662 55.5658C28.3001 55.5658 28.0447 55.4614 27.8548 55.275C27.6649 55.0886 27.5557 54.8351 27.5508 54.5691V35.2031C27.5508 32.6878 28.0762 30.2498 29.1125 27.9567L34.9206 15.1066C35.1707 14.5556 35.2997 13.9574 35.2988 13.3524V11.4823C35.2997 11.2004 35.2285 10.923 35.092 10.6765C34.9554 10.43 34.758 10.2225 34.5186 10.0738L29.928 7.20359C29.7412 7.08662 29.5975 6.91206 29.5186 6.70625C29.4397 6.50045 29.4299 6.27457 29.4907 6.06271C29.5515 5.85085 29.6795 5.66451 29.8555 5.53182C30.0315 5.39913 30.2459 5.32729 30.4663 5.32715H46.6729C46.8063 5.32713 46.9383 5.35337 47.0615 5.4044C47.1848 5.45542 47.2967 5.53022 47.391 5.62452C47.4853 5.71881 47.5601 5.83077 47.6111 5.95398C47.6621 6.07719 47.6884 6.20924 47.6884 6.3426V13.2719C47.6884 13.9155 47.8372 14.5607 48.1186 15.1376L54.0397 27.2874C55.356 29.8429 56.0484 32.6679 56.0417 35.4575V54.3792C56.0135 54.8517 56.0255 55.4551 56.0449 56.1609C56.0978 58.2361 56.1577 60.5853 55.2685 61.9363C54.7473 62.8618 53.9893 63.6321 53.0723 64.1682C52.1553 64.7043 51.1123 64.9869 50.0501 64.987Z" fill="white"/>
<path fill-rule="evenodd" clip-rule="evenodd" d="M55.0271 36.2187H28.567C28.2977 36.2187 28.0394 36.1117 27.849 35.9213C27.6586 35.7308 27.5516 35.4725 27.5516 35.2032C27.5516 34.9339 27.6586 34.6756 27.849 34.4852C28.0394 34.2948 28.2977 34.1878 28.567 34.1878H55.0271C55.2931 34.1927 55.5466 34.3019 55.7329 34.4918C55.9193 34.6817 56.0238 34.9371 56.0238 35.2032C56.0238 35.4693 55.9193 35.7248 55.7329 35.9146C55.5466 36.1045 55.2931 36.2137 55.0271 36.2187ZM46.6735 7.35782H35.6119C35.4785 7.35784 35.3465 7.33159 35.2232 7.28057C35.1 7.22954 34.9881 7.15475 34.8938 7.06045C34.7995 6.96615 34.7247 6.8542 34.6737 6.73099C34.6226 6.60778 34.5964 6.47572 34.5964 6.34237C34.5964 2.84516 37.4416 0 40.9386 0H41.3464C44.8435 0 47.6888 2.84516 47.6888 6.34237C47.6888 6.47571 47.6626 6.60775 47.6116 6.73095C47.5606 6.85415 47.4858 6.96609 47.3915 7.06039C47.2972 7.15468 47.1853 7.22948 47.0621 7.28052C46.9389 7.33155 46.8069 7.35782 46.6735 7.35782ZM36.7481 5.32692H45.5373C45.0796 3.43796 43.3742 2.0309 41.3466 2.0309H40.9388C38.9111 2.03107 37.2058 3.43814 36.7481 5.32692ZM55.8154 65C54.7486 65 53.5006 64.7981 52.2709 63.9352C52.1618 63.8586 52.0688 63.7612 51.9973 63.6487C51.9257 63.5362 51.8771 63.4106 51.854 63.2793C51.831 63.1479 51.8341 63.0133 51.8631 62.8832C51.8921 62.753 51.9464 62.6299 52.023 62.5207C52.0996 62.4116 52.197 62.3186 52.3095 62.247C52.4221 62.1755 52.5476 62.1268 52.6789 62.1038C52.8103 62.0808 52.9449 62.0839 53.075 62.1129C53.2052 62.1419 53.3283 62.1962 53.4375 62.2728C54.4593 62.9897 55.5007 63.0176 56.4736 62.9404C59.0247 62.7388 61.2896 60.6871 61.1342 58.7186C61.0596 57.7743 60.4571 56.8836 59.4376 56.2111C58.395 55.5235 57.0943 55.1842 55.8687 55.2812C55.7812 55.2881 55.4432 55.3218 55.1376 55.3553C54.8714 55.3816 54.6057 55.3018 54.398 55.1333C54.1903 54.9647 54.0575 54.7211 54.0284 54.4552C53.9993 54.1893 54.0762 53.9227 54.2426 53.7133C54.4089 53.5038 54.6511 53.3684 54.9167 53.3365C55.2277 53.3025 55.5908 53.2658 55.7093 53.2565C57.376 53.1248 59.143 53.5837 60.5559 54.5158C62.1095 55.5406 63.0337 56.9764 63.1588 58.5585C63.2836 60.141 62.5961 61.7042 61.2229 62.9599C59.974 64.1022 58.3012 64.8328 56.6335 64.9647C56.3766 64.9854 56.1025 65 55.8154 65ZM26.3367 64.9868C23.0634 64.9868 20.3031 62.6715 20.0613 59.6137C20.0337 59.2628 20.0342 58.948 20.0633 58.6516C20.1991 57.2629 20.8733 55.9523 21.9616 54.9615C23.0384 53.9812 24.4594 53.3759 25.9626 53.257C27.6302 53.1255 29.3968 53.5843 30.8097 54.5163C32.3631 55.5411 33.2876 56.9769 33.4126 58.5591C33.5376 60.1414 32.8501 61.7043 31.4767 62.9605C30.2278 64.1027 28.555 64.8334 26.8875 64.9651C26.7043 64.9795 26.5205 64.9867 26.3367 64.9868ZM26.5381 55.2653C26.399 55.2653 26.2604 55.2708 26.1227 55.2816C24.0031 55.4489 22.2672 56.9827 22.0847 58.8493C22.0674 59.0256 22.0679 59.2233 22.0861 59.4537C22.2437 61.449 24.1124 62.9557 26.3364 62.9559C26.4658 62.9559 26.5961 62.9508 26.7276 62.9404C27.9531 62.8437 29.1845 62.3047 30.1062 61.4617C31.0074 60.6376 31.4626 59.6634 31.3879 58.719C31.3133 57.7744 30.7108 56.884 29.6913 56.2115C28.7659 55.6009 27.6371 55.2653 26.5381 55.2653Z" fill="white"/>
<path fill-rule="evenodd" clip-rule="evenodd" d="M24.951 55.4736C24.8137 55.4736 24.6778 55.4459 24.5515 55.392C24.4252 55.338 24.3111 55.2591 24.2162 55.1598C24.1213 55.0606 24.0475 54.9431 23.9993 54.8145C23.9511 54.6859 23.9295 54.5489 23.9357 54.4117C24.1348 50.0639 23.0936 45.3205 22.1852 42.107C21.8627 40.9678 21.5077 39.8381 21.1207 38.7193C18.9033 45.9244 18.7246 50.8112 18.7636 52.7079L18.7638 52.7287C18.7602 52.9943 18.6528 53.2479 18.4645 53.4352C18.2762 53.6225 18.022 53.7286 17.7564 53.7307C17.4908 53.7328 17.2349 53.6308 17.0436 53.4466C16.8524 53.2623 16.7409 53.0104 16.7331 52.7449C16.6876 50.5044 16.9258 44.3318 20.1019 35.3314C20.1701 35.1385 20.295 34.9707 20.4601 34.85C20.6253 34.7292 20.8231 34.6612 21.0276 34.6548C21.2321 34.6484 21.4337 34.7039 21.6061 34.814C21.7786 34.9241 21.9137 35.0837 21.9939 35.272C22.0387 35.3774 23.1029 37.8953 24.1311 41.5251C25.5177 46.4211 26.1347 50.7881 25.9645 54.5047C25.9525 54.7655 25.8406 55.0117 25.6518 55.1921C25.4631 55.3725 25.2121 55.4733 24.951 55.4736Z" fill="white"/>
<path fill-rule="evenodd" clip-rule="evenodd" d="M16.2797 64.6658C13.0717 64.6658 10.4619 61.8291 10.4619 58.3424C10.4619 56.6859 11.0528 54.9776 12.083 53.6557C13.2164 52.2014 14.7067 51.4004 16.2797 51.4004C17.8527 51.4004 19.3432 52.2014 20.4766 53.6557C22.5859 56.2898 22.7236 60.5105 20.2824 62.9373C19.1965 64.052 17.7749 64.6658 16.2797 64.6658ZM16.2797 53.4311C14.3331 53.4311 12.4926 55.8178 12.4926 58.3424C12.4926 60.7092 14.1915 62.635 16.2797 62.635C18.3513 62.6558 20.1125 60.6415 20.0668 58.3424C20.0666 55.818 18.2262 53.4311 16.2797 53.4311Z" fill="white"/>
<path fill-rule="evenodd" clip-rule="evenodd" d="M11.7791 61.2173C11.6323 61.2172 11.4873 61.1853 11.3541 61.1237C9.23721 60.1465 7.32303 58.7965 5.66488 57.1118C4.34422 55.7698 3.18348 54.2142 2.21511 52.4886C0.566128 49.5503 0.0435048 47.1366 0.0219932 47.0352C-0.0112904 46.8779 -0.00674178 46.7149 0.0352668 46.5597C0.0772753 46.4045 0.155542 46.2615 0.263625 46.1425C0.371707 46.0234 0.506516 45.9317 0.656956 45.875C0.807397 45.8182 0.969168 45.798 1.12895 45.8159C4.05928 46.1457 6.85172 47.2394 9.42852 49.0666C11.534 50.5596 13.0382 52.2214 13.9295 53.3529C14.0898 53.565 14.1605 53.8314 14.1266 54.0951C14.0926 54.3587 13.9566 54.5985 13.7478 54.763C13.539 54.9275 13.274 55.0036 13.0098 54.975C12.7455 54.9463 12.503 54.8152 12.3343 54.6097C11.0336 52.9585 7.6182 49.25 2.45015 48.0939C2.87002 49.2916 3.39536 50.4497 4.01996 51.5546C6.02406 55.0987 8.77788 57.6979 12.2054 59.28C12.4157 59.377 12.5866 59.5429 12.6896 59.7503C12.7926 59.9577 12.8217 60.1941 12.7719 60.4202C12.7221 60.6464 12.5965 60.8487 12.416 60.9937C12.2354 61.1387 12.0107 61.2176 11.7791 61.2173Z" fill="white"/>
</svg>
