<svg width="70" height="60" viewBox="0 0 70 60" fill="none" xmlns="http://www.w3.org/2000/svg">
<path fill-rule="evenodd" clip-rule="evenodd" d="M34.6664 53.6175C38.6788 53.6175 43.1735 53.8935 46.9187 54.4273C48.7934 54.6964 50.4908 54.996 51.8143 55.404C53.0706 55.791 52.6477 55.9972 51.8143 56.2278C50.4821 56.6017 48.7943 56.938 46.9187 57.2019C43.1735 57.733 38.6788 58.0204 34.6664 58.0204C30.6565 58.0204 26.1662 57.7339 22.4219 57.2019C20.5472 56.938 18.8585 56.6061 17.5262 56.2278C16.567 55.9316 16.8029 55.7193 17.5262 55.404C18.8585 55.0275 20.548 54.6955 22.4219 54.4273C26.1662 53.8935 30.6565 53.6175 34.6664 53.6175ZM34.6428 1.97872C35.8981 1.97872 37.1727 2.15606 38.4333 2.53433C41.6763 3.49709 44.4227 5.67422 46.1001 8.61199C46.1315 8.84088 46.2416 9.04879 46.405 9.2043C47.7826 11.9203 48.2474 15.1151 47.4743 18.295C47.1475 19.5967 49.1079 20.0684 49.4032 18.758C50.2226 15.3833 49.8312 11.9841 48.5112 9.02171C49.9415 8.55011 51.437 8.30603 52.943 8.29837C60.9147 8.29837 67.3575 14.7552 67.3575 22.739C67.3561 26.0068 66.2444 29.177 64.2047 31.73C62.165 34.283 59.3185 36.0672 56.1317 36.7901V32.2814C56.1317 32.0184 56.0272 31.7662 55.8413 31.5803C55.6553 31.3943 55.4031 31.2899 55.1401 31.2899C54.8772 31.2899 54.625 31.3943 54.439 31.5803C54.2531 31.7662 54.1486 32.0184 54.1486 32.2814V54.1075C53.5631 53.8646 52.9625 53.6594 52.3507 53.4934C50.8874 53.0784 49.1306 52.743 47.1973 52.4695C43.329 51.9183 38.7705 51.637 34.6664 51.637C30.5613 51.637 26.0072 51.9183 22.1397 52.4695C20.2065 52.743 18.4453 53.0784 16.9846 53.4934C16.3154 53.6795 15.724 53.8839 15.1824 54.1075V32.2779C15.1848 32.1456 15.1607 32.0141 15.1113 31.8912C15.0619 31.7684 14.9883 31.6568 14.8949 31.563C14.8015 31.4692 14.6902 31.3951 14.5676 31.3452C14.445 31.2953 14.3136 31.2705 14.1812 31.2724C13.6308 31.2803 13.194 31.7319 13.2028 32.2779V36.7866C10.0162 36.0652 7.16941 34.2819 5.12974 31.7295C3.09007 29.1771 1.97863 26.0072 1.97784 22.7399C1.97784 14.7552 8.4198 8.29924 16.3923 8.29924C17.894 8.30685 19.3852 8.55096 20.811 9.02258C20.6555 9.36853 20.5148 9.72846 20.3829 10.0919C19.9147 11.3525 21.8244 12.0356 22.2524 10.7567C23.1593 8.19371 24.837 5.97412 27.0554 4.4025C29.2737 2.83088 31.9241 1.98423 34.6428 1.97872ZM34.6471 2.78631e-06C32.0576 0.00877229 29.5133 0.679279 27.2558 1.94786C24.9983 3.21645 23.1025 5.041 21.7484 7.2483C20.0274 6.64289 18.2175 6.32903 16.3932 6.31965C7.34876 6.31965 0 13.6868 0 22.7399C0.00873604 30.5761 5.61378 37.1491 13.2037 38.6841V55.8146C13.1853 56.2514 13.4946 56.5685 13.8676 56.7921C14.7097 57.2918 15.6978 57.7706 16.9846 58.1392C18.4453 58.5524 20.2065 58.8896 22.1397 59.1631C26.0072 59.7135 30.5613 60 34.6664 60C38.7697 60 43.329 59.7135 47.1973 59.1631C49.1306 58.8896 50.8874 58.5524 52.3507 58.1392C53.6943 57.7566 54.7261 57.2752 55.5726 56.7196C55.9954 56.4427 56.1317 56.1832 56.1317 55.8146V38.6884C63.7259 37.1544 69.3275 30.5761 69.3362 22.7399C69.3362 13.6868 61.9883 6.31965 52.943 6.31965C51.1093 6.32402 49.2992 6.65162 47.5739 7.25528C45.686 4.17233 42.7096 1.74634 39.0012 0.641228C37.5891 0.215159 36.1221 -0.000894975 34.6471 2.78631e-06Z" fill="white"/>
<path fill-rule="evenodd" clip-rule="evenodd" d="M34.6665 24.8154C30.6208 24.8154 26.4756 25.3247 22.7994 26.2036C22.5437 26.2646 22.3226 26.4248 22.1849 26.6488C22.0472 26.8729 22.0041 27.1425 22.0652 27.3982C22.1262 27.654 22.2864 27.8751 22.5104 28.0128C22.7345 28.1505 23.004 28.1936 23.2598 28.1325C26.7752 27.2904 30.7903 26.795 34.6665 26.795C38.5479 26.795 42.5604 27.2904 46.0784 28.1325C46.3342 28.1927 46.6034 28.1489 46.8269 28.0106C47.0503 27.8724 47.2097 27.651 47.27 27.3952C47.3302 27.1394 47.2864 26.8701 47.1481 26.6467C47.0098 26.4232 46.7884 26.2638 46.5326 26.2036C42.8556 25.3247 38.7104 24.8154 34.6665 24.8154Z" fill="white"/>
</svg>
