<svg width="52" height="58" viewBox="0 0 52 58" fill="none" xmlns="http://www.w3.org/2000/svg">
<path d="M50.0277 28.36H48.5008C47.87 25.3664 44.8484 23.1031 41.0623 22.8659C40.0265 20.1012 36.8816 18.1672 33.2302 18.1672C32.4197 18.1746 31.6129 18.2789 30.8271 18.478C29.1686 17.178 27.1158 16.4836 25.0087 16.5098C23.662 16.475 22.3255 16.7518 21.1034 17.3187C19.8814 17.8856 18.8069 18.7273 17.9638 19.778C13.8359 19.6941 10.2912 22.2102 9.707 25.4586C7.44995 25.6156 5.34637 26.6581 3.85442 28.359H1.03586C0.76113 28.359 0.497655 28.4681 0.303395 28.6624C0.109134 28.8566 0 29.1201 0 29.3948V32.982C0.00517254 37.0905 1.23055 41.1049 3.52068 44.516C5.81082 47.927 9.06251 50.581 12.8633 52.1412V54.0565C12.8646 55.1021 13.2807 56.1045 14.0202 56.8438C14.7596 57.5831 15.7621 57.9989 16.8078 58H34.2557C35.3014 57.9989 36.3039 57.5831 37.0434 56.8438C37.7829 56.1045 38.1989 55.1021 38.2003 54.0565V52.1402C42.0009 50.58 45.2524 47.9262 47.5426 44.5154C49.8327 41.1045 51.0582 37.0904 51.0635 32.982V29.3959C51.0635 29.1212 50.9544 28.8577 50.7601 28.6634C50.5659 28.4692 50.3024 28.36 50.0277 28.36ZM10.6165 27.4796C10.7545 27.4842 10.892 27.4609 11.0208 27.4111C11.1496 27.3613 11.267 27.286 11.366 27.1898C11.4651 27.0936 11.5437 26.9784 11.5971 26.8511C11.6506 26.7237 11.6778 26.587 11.6772 26.4489C11.6161 23.708 15.0354 21.5514 18.4527 21.8652C18.6391 21.8699 18.8233 21.8251 18.9867 21.7354C19.1502 21.6457 19.2869 21.5143 19.3829 21.3545C20.0081 20.4526 20.8525 19.7247 21.8368 19.2394C22.821 18.7541 23.9126 18.5273 25.0087 18.5805C26.7838 18.5393 28.5086 19.1723 29.8357 20.3518C29.9764 20.4661 30.1405 20.5482 30.3164 20.5921C31.2808 20.6336 32.2151 20.1447 33.2302 20.2379C36.3741 20.2451 38.8622 21.9864 39.377 24.3399C39.4655 24.515 39.6018 24.6616 39.77 24.7626C39.9383 24.8636 40.1317 24.9149 40.3279 24.9106C43.1693 24.8796 45.6605 26.365 46.3545 28.36H7.06453C8.15758 27.7766 9.37749 27.474 10.6165 27.4796ZM36.1286 54.0565C36.1277 54.5529 35.9301 55.0286 35.5791 55.3795C35.228 55.7304 34.7521 55.9277 34.2557 55.9283H16.8078C16.3114 55.9277 15.8355 55.7304 15.4845 55.3795C15.1334 55.0286 14.9358 54.5529 14.935 54.0565V52.8601C16.8119 53.4114 18.7578 53.6929 20.714 53.696H30.3495C32.3058 53.6929 34.2516 53.4114 36.1286 52.8601V54.0565ZM48.9929 32.982C48.9874 37.925 47.0213 42.664 43.5259 46.1592C40.0306 49.6543 35.2915 51.6201 30.3485 51.6253H20.715C9.25123 51.6222 1.02964 41.6397 2.07275 30.4317C2.09968 30.4349 4.32366 30.4235 4.34749 30.4359C4.36095 30.4224 47.553 30.4359 47.5748 30.4317C47.5961 30.4376 47.6187 30.4376 47.64 30.4317H48.9939L48.9929 32.982ZM16.9632 11.8444C16.8788 11.9511 16.8164 12.0735 16.7793 12.2044C16.7422 12.3353 16.7313 12.4723 16.7472 12.6074C16.7631 12.7426 16.8054 12.8733 16.8718 12.9921C16.9382 13.1108 17.0273 13.2154 17.1341 13.2997C17.2409 13.3841 17.3632 13.4465 17.4941 13.4836C17.6251 13.5207 17.762 13.5316 17.8972 13.5157C18.1701 13.4836 18.4191 13.3445 18.5895 13.1288C19.37 12.1443 19.7748 10.9142 19.7313 9.65857C19.6878 8.40295 19.199 7.20376 18.3523 6.27559C17.7858 5.65499 17.4847 4.83735 17.5133 3.99758C17.542 3.15781 17.8981 2.3626 18.5056 1.78205C18.7034 1.59125 18.8173 1.32969 18.8222 1.05491C18.8272 0.78013 18.7228 0.514635 18.532 0.316832C18.3412 0.11903 18.0796 0.0051222 17.8048 0.000168556C17.5301 -0.00478509 17.2646 0.0996211 17.0668 0.290418C16.0695 1.24517 15.4858 2.55243 15.4405 3.93227C15.3952 5.31212 15.8919 6.65485 16.8244 7.67296C17.3388 8.23868 17.6352 8.96893 17.6606 9.73314C17.6861 10.4973 17.4388 11.2457 16.9632 11.8444ZM24.9206 11.8444C24.8363 11.9511 24.7738 12.0735 24.7367 12.2044C24.6997 12.3353 24.6888 12.4723 24.7047 12.6074C24.7205 12.7426 24.7629 12.8733 24.8292 12.9921C24.8956 13.1108 24.9847 13.2154 25.0915 13.2997C25.1983 13.3841 25.3207 13.4465 25.4516 13.4836C25.5825 13.5207 25.7195 13.5316 25.8546 13.5157C26.1276 13.4836 26.3766 13.3445 26.5469 13.1288C27.3278 12.1445 27.7328 10.9144 27.6896 9.65875C27.6463 8.40308 27.1575 7.20379 26.3107 6.27559C25.7441 5.65513 25.4428 4.83756 25.4713 3.99779C25.4997 3.15803 25.8557 2.36274 26.463 1.78205C26.6527 1.58973 26.7597 1.33092 26.7613 1.0608C26.7629 0.790676 26.659 0.530616 26.4716 0.336062C26.2842 0.141507 26.0282 0.0278508 25.7582 0.0193243C25.4882 0.0107978 25.2256 0.108076 25.0263 0.290418C24.0285 1.24476 23.4442 2.55191 23.3985 3.93184C23.3528 5.31176 23.8494 6.6547 24.7818 7.67296C25.2964 8.23855 25.593 8.96874 25.6186 9.73295C25.6442 10.4972 25.3961 11.2456 24.9206 11.8444ZM32.8801 11.8444C32.7139 12.0602 32.6394 12.3329 32.6728 12.6033C32.7062 12.8737 32.8448 13.1201 33.0586 13.289C33.2724 13.4579 33.5441 13.5359 33.8149 13.5059C34.0857 13.4759 34.3338 13.3404 34.5054 13.1288C35.2861 12.1444 35.691 10.9144 35.6477 9.65876C35.6045 8.40314 35.1158 7.20389 34.2692 6.27559C33.7026 5.65513 33.4013 4.83756 33.4298 3.99779C33.4582 3.15803 33.8142 2.36274 34.4215 1.78205C34.6193 1.59139 34.7332 1.32996 34.7383 1.05528C34.7433 0.780594 34.6391 0.515153 34.4484 0.317351C34.2578 0.119548 33.9963 0.00558583 33.7216 0.000535055C33.447 -0.00451572 33.1815 0.0997584 32.9837 0.290418C31.9861 1.2449 31.402 2.55212 31.3565 3.93205C31.311 5.31197 31.8077 6.65484 32.7403 7.67296C33.2549 8.23855 33.5515 8.96874 33.5771 9.73295C33.6027 10.4972 33.3557 11.2456 32.8801 11.8444Z" fill="white"/>
</svg>
