<svg width="33" height="20" viewBox="0 0 33 20" fill="none" xmlns="http://www.w3.org/2000/svg">
<path d="M27.177 16.4811H4.84574C4.73996 16.4811 4.63684 16.4481 4.55077 16.3866C4.4647 16.3251 4.4 16.2382 4.36569 16.1382L1.0273 6.40158C0.983773 6.27419 0.992563 6.13474 1.05175 6.01382C1.11093 5.89291 1.21567 5.80041 1.34297 5.75664C1.42431 5.72898 1.50913 5.72207 1.58779 5.73597C1.68089 5.74141 1.77069 5.77247 1.84725 5.82572C1.92382 5.87897 1.98418 5.95234 2.02167 6.03774C2.43436 6.97486 3.90237 10.0003 5.61491 10.0003C5.6361 10.0003 5.65766 9.99981 5.67937 9.99862C6.71239 9.95275 8.32791 8.76062 10.1584 3.34504C10.1925 3.24454 10.2571 3.15722 10.3433 3.09535C10.4295 3.03348 10.5329 3.00016 10.639 3.00007C10.7452 3.00006 10.8487 3.03334 10.935 3.09522C11.0213 3.1571 11.086 3.24446 11.12 3.34504C11.7449 5.19177 13.8396 9.97044 16.0148 9.97044C16.0206 9.97044 16.0261 9.97014 16.0322 9.97014C17.0634 9.95765 18.6492 8.8004 20.3472 3.35641C20.3794 3.2531 20.4438 3.16279 20.531 3.09868C20.6182 3.03456 20.7236 2.99998 20.8319 3H20.8368C20.9459 3.00103 21.0517 3.03722 21.1386 3.10319C21.2255 3.16917 21.2889 3.26141 21.3192 3.36622C21.8381 5.15348 23.6787 9.83454 25.9364 10.03C27.2554 10.1386 28.7179 8.64591 30.1619 5.69739C30.2185 5.58125 30.3173 5.49112 30.4382 5.4454C30.559 5.39968 30.6928 5.40182 30.8121 5.45138C30.9313 5.50087 31.0272 5.59389 31.0803 5.71153C31.1335 5.82917 31.1398 5.96263 31.0982 6.0848L27.6574 16.1382C27.623 16.2383 27.5583 16.3251 27.4722 16.3866C27.386 16.4481 27.2828 16.4811 27.177 16.4811ZM5.20802 15.4662H26.814L28.8025 9.65626C27.8415 10.6733 26.8658 11.1268 25.8481 11.0415C23.3477 10.824 21.632 7.22086 20.8342 5.10292C19.4251 9.03622 17.852 10.9637 16.0439 10.9849C16.034 10.9849 16.0247 10.9855 16.0148 10.9855C13.488 10.9855 11.5372 7.11165 10.6536 4.97483C9.14571 8.95377 7.52759 10.932 5.72442 11.0128C4.80002 11.0484 3.99501 10.5879 3.30182 9.90457L5.20802 15.4662Z" fill="white"/>
<path d="M27.4065 20H5.07531C5.00865 20 4.94264 19.9869 4.88105 19.9614C4.81946 19.9359 4.7635 19.8985 4.71638 19.8514C4.66925 19.8042 4.63188 19.7483 4.60641 19.6867C4.58093 19.6251 4.56785 19.559 4.56791 19.4924V15.4321C4.56791 15.1516 4.79473 14.9248 5.07531 14.9248C5.35589 14.9248 5.58294 15.1515 5.58294 15.4321V18.985H26.8991V15.4321C26.8991 15.1516 27.1261 14.9248 27.4067 14.9248C27.6873 14.9248 27.914 15.1515 27.914 15.4321V19.4924C27.9141 19.559 27.901 19.625 27.8755 19.6866C27.8501 19.7482 27.8127 19.8042 27.7656 19.8513C27.7185 19.8985 27.6625 19.9359 27.6009 19.9614C27.5394 19.9869 27.4734 20 27.4067 20H27.4065ZM11.0783 3.47362C10.1207 3.47362 9.3416 2.69449 9.3416 1.73663C9.3416 0.77921 10.1207 0 11.0783 0C12.0361 0 12.8152 0.779508 12.8152 1.73692C12.8152 2.69434 12.0361 3.47362 11.0783 3.47362ZM11.0783 1.01526C10.6804 1.01526 10.3566 1.3391 10.3566 1.73692C10.3566 2.13511 10.6804 2.45859 11.0783 2.45859C11.4764 2.45859 11.8 2.13482 11.8 1.73692C11.8 1.33881 11.4764 1.01526 11.0783 1.01526ZM20.9115 3.47362C19.9541 3.47362 19.1749 2.69449 19.1749 1.73663C19.1749 0.77921 19.9541 0 20.9116 0C21.8693 0 22.6485 0.779508 22.6485 1.73692C22.6485 2.69434 21.8694 3.47362 20.9115 3.47362ZM20.9115 1.01526C20.5137 1.01526 20.1899 1.3391 20.1899 1.73692C20.1899 2.13511 20.5137 2.45859 20.9115 2.45859C21.3097 2.45859 21.6335 2.13511 21.6335 1.73692C21.6335 1.3391 21.3097 1.01526 20.9116 1.01526H20.9115ZM30.7452 5.93191C29.7874 5.93191 29.0082 5.15278 29.0082 4.19522C29.0082 3.2378 29.7874 2.45859 30.7452 2.45859C31.7027 2.45859 32.4819 3.23773 32.4819 4.19529C32.4819 5.15278 31.7027 5.93191 30.7452 5.93191ZM30.7452 3.47362C30.347 3.47362 30.0235 3.7971 30.0235 4.19529C30.0235 4.59341 30.347 4.91696 30.7452 4.91696C31.143 4.91696 31.4668 4.59341 31.4668 4.19529C31.4668 3.7971 31.143 3.47362 30.7452 3.47362ZM1.7367 5.93191C0.779136 5.93191 0 5.15278 0 4.19522C0 3.2378 0.779136 2.45859 1.7367 2.45859C2.69441 2.45859 3.47362 3.23773 3.47362 4.19529C3.47362 5.15278 2.69411 5.93199 1.73663 5.93199L1.7367 5.93191ZM1.7367 3.47362C1.33881 3.47362 1.01496 3.7971 1.01496 4.19529C1.01496 4.59341 1.33881 4.91696 1.73663 4.91696C2.13482 4.91696 2.45859 4.59341 2.45859 4.19529C2.45859 3.7971 2.13482 3.47362 1.7367 3.47362Z" fill="white"/>
</svg>
