<svg width="26" height="22" viewBox="0 0 26 22" fill="none" xmlns="http://www.w3.org/2000/svg">
<path fill-rule="evenodd" clip-rule="evenodd" d="M0 7.61538C0 7.39097 0.0856026 7.17575 0.237976 7.01706C0.390349 6.85838 0.597012 6.76923 0.8125 6.76923H19.188C19.4035 6.76923 19.6102 6.85838 19.7625 7.01706C19.9149 7.17575 20.0005 7.39097 20.0005 7.61538C20.0005 7.8398 19.9149 8.05502 19.7625 8.21371C19.6102 8.37239 19.4035 8.46154 19.188 8.46154H0.8125C0.597012 8.46154 0.390349 8.37239 0.237976 8.21371C0.0856026 8.05502 0 7.8398 0 7.61538ZM0 0.846154C0 0.62174 0.0856026 0.406518 0.237976 0.247833C0.390349 0.0891483 0.597012 0 0.8125 0H25.1875C25.403 0 25.6097 0.0891483 25.762 0.247833C25.9144 0.406518 26 0.62174 26 0.846154C26 1.07057 25.9144 1.28579 25.762 1.44447C25.6097 1.60316 25.403 1.69231 25.1875 1.69231H0.8125C0.597012 1.69231 0.390349 1.60316 0.237976 1.44447C0.0856026 1.28579 0 1.07057 0 0.846154ZM0 14.3846C0 14.1602 0.0856026 13.945 0.237976 13.7863C0.390349 13.6276 0.597012 13.5385 0.8125 13.5385H25.1875C25.403 13.5385 25.6097 13.6276 25.762 13.7863C25.9144 13.945 26 14.1602 26 14.3846C26 14.609 25.9144 14.8243 25.762 14.9829C25.6097 15.1416 25.403 15.2308 25.1875 15.2308H0.8125C0.597012 15.2308 0.390349 15.1416 0.237976 14.9829C0.0856026 14.8243 0 14.609 0 14.3846ZM0 21.1538C0 20.9294 0.0856026 20.7142 0.237976 20.5555C0.390349 20.3968 0.597012 20.3077 0.8125 20.3077H19.188C19.4035 20.3077 19.6102 20.3968 19.7625 20.5555C19.9149 20.7142 20.0005 20.9294 20.0005 21.1538C20.0005 21.3783 19.9149 21.5935 19.7625 21.7522C19.6102 21.9109 19.4035 22 19.188 22H0.8125C0.597012 22 0.390349 21.9109 0.237976 21.7522C0.0856026 21.5935 0 21.3783 0 21.1538Z" fill="white"/>
</svg>
