<svg width="30" height="30" viewBox="0 0 30 30" fill="none" xmlns="http://www.w3.org/2000/svg">
<path d="M22.8071 15.22C25.6107 15.22 27.5 17.2055 27.5 20.1473C27.5 22.7945 25.3286 25 22.3875 25C19.1661 25 16.7857 22.3527 16.7857 18.3091C16.7857 9.11818 23.3679 5.44182 27.5 5V9.04364C24.6982 9.55818 21.5482 12.4255 21.4071 15.5891C21.5482 15.5164 22.1071 15.22 22.8071 15.22ZM8.52321 15.22C11.3232 15.22 13.2143 17.2055 13.2143 20.1473C13.2143 22.7945 11.0429 25 8.10179 25C4.88036 25 2.5 22.3527 2.5 18.3091C2.5 9.11818 9.08214 5.44182 13.2143 5V9.04364C10.4125 9.55818 7.2625 12.4255 7.12143 15.5891C7.2625 15.5164 7.82143 15.22 8.52321 15.22Z" fill="white"/>
</svg>
